<?xml version="1.0" encoding="utf-8"?>
<!-- Generator: Adobe Illustrator 27.4.1, SVG Export Plug-In . SVG Version: 6.00 Build 0)  -->
<svg version="1.1" id="Layer_1" xmlns="http://www.w3.org/2000/svg" xmlns:xlink="http://www.w3.org/1999/xlink" x="0px" y="0px"
	 viewBox="0 0 48 48" style="enable-background:new 0 0 48 48;" xml:space="preserve">
<style type="text/css">
	.st0{fill-rule:evenodd;clip-rule:evenodd;}
</style>
<path class="st0" d="M47.6,28.3c-0.2,1.1-0.6,2.1-1.2,2.9S45,32.9,44,33.4c-0.3,0.1-0.5,0.3-0.8,0.4c0.4,4.8-7.2,6.5-11.3,5.4
	l1.5,5.3l-3.9,0.1l-6.8-9.8c-2.3,0.6-5,1-6.8-1.9c-0.2-0.3-0.3-0.5-0.4-0.8c-0.4,0.1-0.9,0.1-1.4,0.1c-1.3,0-3.5-0.4-4.6-1.2
	c-0.9-0.6-1.6-1.4-2-2.3c-2.3,0.3-4.3-0.2-5.6-1.6c-1.6-1.7-2.1-4.5-1.3-7.5c1.1-4,4.6-8.5,11.4-10.2c0.6-0.7,1.3-1.4,2.1-1.9
	c4.3-2.7,11.3-3,16.5-0.4c2-0.4,4.2-0.2,6.1,0.6c3.8,1.4,6.6,4.4,7.1,7.4c1,0.5,1.9,1.4,2.4,2.4c1.1,2.1,1.3,4.3,0.5,6
	C47.6,25.1,47.9,26.8,47.6,28.3z M44.8,26.1c-0.6,0.3-1.3,0.5-2,0.5s-1.4-0.2-2-0.5l0.3-2.1c1.3,0.1,2.4-0.3,3-1.1
	c0.6-0.9,0.5-2.4-0.3-3.9C43,17.3,41,17,40,17h-0.1c-2.7,0-5.5,1.5-6.6,3.5l-1.6-0.8c0.3-1,0.9-2,1.6-2.8c-0.6-0.5-1.1-1.2-1.4-2
	c-0.3-0.8-0.3-1.6-0.2-2.4l1.6-0.1c0.1,0.6,0.3,1.3,0.8,1.8c0.4,0.5,1,0.8,1.6,1c1.3-0.6,2.8-0.9,4.2-0.9c0.2,0,0.4,0,0.6,0
	c-1-1.8-2.7-3.3-4.6-4c-4.8-1.9-8,1-8.8,2c-1.8,2.4-0.6,4.6,0.2,6.1L26,19.8c-1.2-1.1-2.1-2.5-2.4-4.2c-1.8,0.5-4.3,0.4-5.7-1.9
	l1.3-0.9c1.5,1.1,3.8,1,4.9-0.4c0.3-0.6,0.6-1.2,1-1.7c0.6-0.8,1.4-1.5,2.2-2.1c-3.6-1-8.7-0.8-11.7,1.1c-0.8,0.5-1.5,1.2-2,2
	c-0.5,0.8-0.7,1.8-0.7,2.7c0,1.5,1.2,4,2.8,4.4l-0.9,1.8c-1-0.2-2-0.8-2.7-1.6L10.8,21l-1.4-0.7l1.4-3.6c-0.2-0.7-0.3-1.4-0.3-2.2
	c0-0.6,0.1-1.2,0.2-1.7c-4.3,1.8-6.5,4.8-7.2,7.5c-0.6,2.1-0.4,4,0.6,5c0.8,0.8,2,1,3.1,0.9l3-2.4l1,0.8l-0.9,3
	c0.5,1.5,2,2.3,4.8,1.7c0.1-1.2,0.6-2.3,1.4-3.3c0.5-0.8,1.3-1.4,2.1-1.9l1.5-4l1.5-0.1l-0.2,3.3c2.5-0.3,5.3,0.3,7.9-0.1l0.5,1.7
	c-3.8,1.8-7.7-1.1-11.2,2.7c-1.3,1.4-0.8,2.5,0,3.7c1.1,1.7,3.2,0.7,5.4,0c3.3-1,5.7-1.7,10.2-1.4c-1.1-2-1-4.5,0.5-7.2l2.1,0.8
	c-1.5,3.4-0.1,5.4,0.9,6.3c1.5,1.4,3.7,1.8,5.2,0.9c0.6-0.3,1.1-0.7,1.4-1.3c0.4-0.5,0.6-1.1,0.7-1.8C44.9,27.3,44.9,26.7,44.8,26.1
	L44.8,26.1z"/>
</svg>
