<svg height="56" viewBox="0 0 56 56" width="56" xmlns="http://www.w3.org/2000/svg"><path d="m23.6641 52.3985c2.9766 2.9765 5.6953 2.9531 8.6485 0l3.6093-3.586c.375-.3515.7031-.4922 1.1953-.4922h5.0625c4.1952 0 6.1407-1.9218 6.1407-6.1406v-5.0625c0-.4922.1406-.8203.492-1.1953l3.5625-3.6094c3-2.9531 2.9765-5.6718 0-8.6484l-3.5625-3.6094c-.3514-.3516-.492-.7031-.492-1.1718v-5.086c0-4.1719-1.9219-6.1406-6.1407-6.1406h-5.0625c-.4922 0-.8203-.1172-1.1953-.4688l-3.6093-3.5859c-2.9532-2.9766-5.6719-2.9531-8.6485 0l-3.6094 3.5859c-.3515.3516-.7031.4688-1.1719.4688h-5.0859c-4.1953 0-6.1406 1.9219-6.1406 6.1406v5.086c0 .4687-.1172.8202-.4687 1.1718l-3.586 3.6094c-2.9765 2.9766-2.9531 5.6953 0 8.6484l3.586 3.6094c.3515.375.4687.7031.4687 1.1953v5.0625c0 4.1953 1.9453 6.1406 6.1406 6.1406h5.0859c.4688 0 .8204.1407 1.1719.4922zm2.625-2.6251-4.4063-4.4296c-.5156-.5391-1.0546-.75-1.7812-.75h-6.3047c-2.0859 0-2.4141-.3282-2.4141-2.4141v-6.3047c0-.7031-.2109-1.2421-.7265-1.7578l-4.4297-4.4063c-1.4765-1.5-1.4765-1.9218 0-3.4218l4.4297-4.4062c.5156-.5157.7265-1.0547.7265-1.7813v-6.3047c0-2.1094.3048-2.414 2.4141-2.414h6.3047c.7266 0 1.2656-.1876 1.7812-.7266l4.4063-4.4297c1.5-1.4766 1.9219-1.4766 3.4219 0l4.4062 4.4297c.5156.539 1.0547.7266 1.7578.7266h6.3047c2.086 0 2.4141.328 2.4141 2.414v6.3047c0 .7266.2344 1.2656.7501 1.7813l4.4294 4.4062c1.4765 1.5 1.4765 1.9218 0 3.4218l-4.4294 4.4063c-.5157.5157-.7501 1.0547-.7501 1.7578v6.3047c0 2.0859-.3281 2.4141-2.4141 2.4141h-6.3047c-.7031 0-1.2422.2109-1.7578.75l-4.4062 4.4296c-1.5 1.4766-1.9219 1.4766-3.4219 0zm-1.9453-10.5468c.6797 0 1.1953-.2813 1.5469-.7032l13.0078-18.1874c.2578-.3751.3984-.7969.3984-1.1953 0-1.0313-.7968-1.8516-1.875-1.8516-.7734 0-1.1953.2578-1.664.9375l-11.4844 16.1719-5.9297-6.5391c-.3984-.4453-.8437-.6328-1.4297-.6328-1.1484 0-1.9687.7734-1.9687 1.8516 0 .4687.164.914.4922 1.2421l7.4531 8.2969c.3516.375.7969.6094 1.4531.6094z"></path></svg>