<?xml version="1.0" encoding="utf-8"?>
<!-- Generator: Adobe Illustrator 27.4.1, SVG Export Plug-In . SVG Version: 6.00 Build 0)  -->
<svg version="1.1" id="Layer_1" xmlns="http://www.w3.org/2000/svg" xmlns:xlink="http://www.w3.org/1999/xlink" x="0px" y="0px"
	 viewBox="0 0 128 128" style="enable-background:new 0 0 128 128;" xml:space="preserve">
<style type="text/css">
	.st0{fill-rule:evenodd;clip-rule:evenodd;fill:#F9F9F9;}
</style>
<path class="st0" d="M118.4,71.7c-0.4,2.5-1.3,4.8-2.7,6.8s-3.3,3.7-5.5,4.9c-0.6,0.3-1.2,0.6-1.9,0.8c0.8,11-16.7,15-26.1,12.4
	l3.5,12.2l-9,0.3L61,86.7c-5.3,1.5-11.6,2.2-15.6-4.3c-0.4-0.6-0.7-1.2-1-1.8c-1,0.2-2.1,0.3-3.1,0.3c-3,0-8-0.9-10.5-2.7
	c-2-1.3-3.6-3.2-4.6-5.4c-5.4,0.7-10-0.5-13-3.7c-3.9-3.9-5-10.4-3-17.3c2.6-9.2,10.6-19.7,26.3-23.6c1.4-1.7,3-3.2,4.8-4.3
	c9.9-6.3,26-6.9,38.2-0.9c4.7-0.9,9.6-0.4,14.1,1.3c8.8,3.3,15.2,10.2,16.4,17.2c2.4,1.2,4.3,3.2,5.6,5.5c2.6,4.9,3,9.9,1.2,13.9
	C118.5,64.3,119.1,68.1,118.4,71.7z M111.9,66.5c-1.4,0.7-3,1.1-4.5,1.1s-3.1-0.4-4.5-1.1l0.7-4.8c3.1,0.3,5.6-0.7,6.9-2.6
	c1.5-2.2,1.2-5.4-0.6-8.9c-2.1-3.9-6.6-4.5-9.1-4.6h-0.2c-6.2,0-12.6,3.6-15.2,8.2L81.7,52c0.7-2.4,2-4.6,3.7-6.4
	c-1.4-1.2-2.5-2.8-3.2-4.6c-0.7-1.8-0.8-3.7-0.4-5.6l3.7-0.3c0.2,1.5,0.8,2.9,1.8,4.1s2.3,2,3.8,2.3c3.1-1.4,6.4-2.1,9.8-2
	c0.5,0,0.9,0.1,1.4,0.1c-2.4-4.2-6.2-7.5-10.7-9.3C80.5,26,73.1,32.7,71.3,35c-4.1,5.5-1.5,10.7,0.5,14.1l-3.3,3
	c-2.9-2.5-4.8-5.9-5.5-9.6c-4.2,1.3-9.9,1-13.1-4.4l3-2.1c3.4,2.5,8.7,2.3,11.3-0.8c0.6-1.4,1.4-2.7,2.3-3.9
	c1.4-1.9,3.2-3.6,5.2-4.9c-8.3-2.3-20-1.9-27.1,2.7c-1.9,1.1-3.5,2.7-4.6,4.7c-1.1,1.9-1.6,4.1-1.5,6.3c0,3.6,2.8,9.2,6.6,10.1
	l-2.2,4.2c-2.4-0.6-4.6-1.8-6.3-3.6l-3.2,4l-3.2-1.6l3.2-8.3c-0.5-1.6-0.8-3.3-0.8-5c0-1.3,0.1-2.7,0.4-4c-10,4.1-14.9,11-16.8,17.3
	c-1.4,4.8-0.9,9.2,1.4,11.5c1.8,1.9,4.6,2.3,7.2,2.1l7-5.4l2.3,1.9L32,70.1c1.1,3.5,4.7,5.3,11.2,4c0.3-2.8,1.4-5.4,3.2-7.6
	c1.3-1.8,2.9-3.3,4.9-4.4l3.4-9.2l3.4-0.2l-0.4,7.6c5.8-0.6,12.2,0.6,18.2-0.3l1.1,4c-8.8,4.2-17.8-2.5-25.9,6.3
	c-2.9,3.1-1.8,5.9,0,8.6c2.6,3.9,7.5,1.6,12.5,0c7.6-2.3,13.1-4,23.5-3.2C84.6,71,84.9,65.3,88.2,59l4.9,1.9
	c-3.4,7.9-0.2,12.5,2,14.5c3.4,3.1,8.6,4.1,12,2.2c1.3-0.7,2.4-1.7,3.3-3c0.9-1.3,1.4-2.6,1.6-4.1C112.2,69.3,112.2,67.9,111.9,66.5
	L111.9,66.5z"/>
</svg>
